<?xml version="1.0" encoding="iso-8859-1"?>
<!-- Uploaded to: SVG Repo, www.svgrepo.com, Generator: SVG Repo Mixer Tools -->
<svg height="800px" width="800px" version="1.1" id="Layer_1" xmlns="http://www.w3.org/2000/svg" xmlns:xlink="http://www.w3.org/1999/xlink" 
	 viewBox="0 0 512 512" xml:space="preserve">
<path style="fill:#FFD940;" d="M320.385,254.998L320.385,254.998L320.385,254.998c3.119-42.779-27.175-80.768-69.576-87.246l0,0l0,0
	c35.391-24.234,46.203-71.604,24.831-108.794l0,0l0,0c41.012,12.56,84.79-8.522,100.541-48.418l0,0l0,0
	c15.751,39.897,59.527,60.978,100.541,48.418l0,0l0,0c-21.372,37.19-10.56,84.56,24.831,108.794l0,0l0,0
	c-42.401,6.478-72.696,44.466-69.576,87.246l0,0l0,0C400.474,225.886,351.886,225.886,320.385,254.998z"/>
<circle style="fill:#FFFFFF;" cx="379.138" cy="132.769" r="48.056"/>
<path style="fill:#08C5FF;" d="M390.384,501.459c15.444-21.923,24.247-48.86,23.393-77.908
	c-2.061-70.058-61.041-126.149-131.118-124.853c-69.983,1.295-126.315,58.43-126.315,128.722c0,4.463,0.229,8.871,0.672,13.217
	c-14.231-22.222-39.826-36.467-68.599-34.479c-35.245,2.435-64.407,29.82-69.089,64.835c-1.427,10.671-0.531,20.942,2.151,30.464
	L390.384,501.459L390.384,501.459z"/>
<path d="M467.672,491.012h-58.786c10.753-20.819,16.034-43.911,15.332-67.768c-2.231-75.839-65.809-136.37-141.753-134.99
	c-36.629,0.678-70.956,15.455-96.659,41.61c-22.53,22.926-36.198,52.331-39.255,83.94c-16.438-12.892-37.326-19.554-58.856-18.066
	c-40.264,2.782-73.373,33.85-78.723,73.873c-0.965,7.215-1.014,14.421-0.165,21.544C3.818,491.942,0,496.249,0,501.459
	c0,5.77,4.677,10.447,10.447,10.447h457.225c5.77,0,10.447-4.677,10.447-10.447C478.119,495.689,473.441,491.012,467.672,491.012z
	 M29.87,491.012c-0.959-6.144-1.024-12.384-0.189-18.632c4.043-30.231,29.046-53.697,59.455-55.799
	c23.669-1.632,46.305,9.742,59.081,29.691c2.609,4.072,7.671,5.821,12.239,4.23c4.567-1.593,7.443-6.112,6.952-10.924
	c-0.41-4.016-0.617-8.107-0.617-12.157c0-64.034,52.065-117.093,116.062-118.277c64.557-1.169,118.585,50.267,120.482,114.715
	c0.706,24.005-5.681,47.109-18.514,67.154L29.87,491.012L29.87,491.012z"/>
<path d="M332.83,149.357c5.722-0.744,9.756-5.985,9.013-11.707c-1.519-11.685,2.382-23.158,10.701-31.475
	c14.663-14.665,38.523-14.664,53.188,0c14.664,14.664,14.664,38.524,0,53.188c-8.526,8.526-20.264,12.389-32.209,10.597
	c-5.706-0.852-11.025,3.077-11.881,8.783c-0.856,5.706,3.077,11.026,8.783,11.881c2.869,0.43,5.745,0.64,8.61,0.64
	c15.412,0,30.454-6.11,41.471-17.127c22.81-22.81,22.81-59.925,0-82.737c-22.811-22.809-59.925-22.81-82.736,0
	c-12.939,12.939-19.006,30.779-16.645,48.944C321.867,146.066,327.107,150.105,332.83,149.357z"/>
<path d="M352.447,159.267c-4.079-4.079-10.694-4.079-14.775,0c-4.079,4.079-4.079,10.694,0,14.775l0.097,0.097
	c2.04,2.04,4.714,3.06,7.387,3.06s5.348-1.02,7.387-3.06c4.079-4.079,4.079-10.694,0-14.775L352.447,159.267z"/>
<path d="M249.231,178.078c36.762,5.616,63.44,39.069,60.734,76.159c-0.311,4.278,2.023,8.312,5.887,10.172
	c3.865,1.862,8.473,1.171,11.623-1.74c27.311-25.239,70.1-25.24,97.411,0c1.972,1.823,4.517,2.775,7.093,2.775
	c1.538,0,3.086-0.34,4.53-1.034c3.864-1.861,6.198-5.895,5.887-10.172c-2.705-37.09,23.972-70.542,60.735-76.159
	c4.24-0.648,7.653-3.821,8.607-8.002c0.954-4.181-0.744-8.522-4.283-10.944c-30.685-21.011-40.206-62.725-21.676-94.968
	c2.136-3.719,1.784-8.366-0.89-11.718c-2.675-3.353-7.128-4.732-11.227-3.476c-35.557,10.89-74.108-7.675-87.764-42.265
	c-1.574-3.99-5.428-6.611-9.717-6.611s-8.142,2.621-9.717,6.611c-13.656,34.59-52.207,53.156-87.764,42.265
	c-4.101-1.256-8.552,0.122-11.227,3.476c-2.674,3.352-3.026,8-0.89,11.718c18.53,32.243,9.008,73.958-21.676,94.968
	c-3.538,2.423-5.237,6.763-4.282,10.944C241.579,174.258,244.992,177.431,249.231,178.078z M294.696,120.538
	c3.645-15.968,2.994-32.389-1.728-47.761c16.04,1.184,32.192-1.838,46.948-8.944c14.756-7.107,27.189-17.854,36.264-31.13
	c9.075,13.276,21.507,24.023,36.264,31.13c14.757,7.106,30.905,10.126,46.948,8.944c-4.722,15.372-5.373,31.794-1.728,47.761
	s11.356,30.481,22.28,42.282c-14.962,5.893-28.207,15.622-38.418,28.428c-10.212,12.805-16.75,27.883-19.167,43.781
	c-13.936-8.023-29.801-12.313-46.179-12.313c-16.379,0-32.243,4.288-46.179,12.313c-2.416-15.898-8.955-30.976-19.167-43.781
	c-10.212-12.806-23.456-22.535-38.418-28.428C283.34,151.019,291.051,136.506,294.696,120.538z"/>
<path d="M364.281,396.81c5.123-2.655,7.125-8.958,4.471-14.081c-16.561-31.97-50.339-52.188-86.077-51.538
	c-5.769,0.108-10.359,4.87-10.251,10.639c0.107,5.768,4.816,10.355,10.639,10.251c27.846-0.514,54.201,15.287,67.138,40.258
	c1.858,3.587,5.507,5.643,9.285,5.643C361.102,397.983,362.746,397.606,364.281,396.81z"/>
<path d="M368.406,412.975c-5.766,0.214-10.267,5.06-10.053,10.826l0.001,0.042c0.209,5.634,4.84,10.039,10.43,10.039
	c0.131,0,0.263-0.002,0.395-0.007c5.767-0.213,10.266-5.081,10.053-10.847C379.019,417.263,374.172,412.758,368.406,412.975z"/>
<path d="M501.45,491.012h-0.522c-5.77,0-10.447,4.677-10.447,10.447c0,5.77,4.677,10.447,10.447,10.447h0.522
	c5.77,0,10.447-4.677,10.447-10.447C511.897,495.689,507.22,491.012,501.45,491.012z"/>
</svg>  